<mxfile host="app.diagrams.net" modified="2024-06-21T23:44:53.209Z" agent="Mozilla/5.0 (Windows NT 10.0; Win64; x64) AppleWebKit/537.36 (KHTML, like Gecko) Chrome/126.0.0.0 Safari/537.36" etag="yREVRW7ZJiJn4wh_c5ye" version="24.6.1" type="device">
  <diagram name="Page-1" id="e7e014a7-5840-1c2e-5031-d8a46d1fe8dd">
    <mxGraphModel dx="880" dy="521" grid="1" gridSize="10" guides="1" tooltips="1" connect="1" arrows="1" fold="1" page="1" pageScale="1" pageWidth="1169" pageHeight="826" background="none" math="0" shadow="0">
      <root>
        <mxCell id="0" />
        <mxCell id="1" parent="0" />
        <mxCell id="20" value="" style="endArrow=open;strokeColor=#FF0000;endFill=1;rounded=0;entryX=0;entryY=0.5;entryDx=0;entryDy=0;exitX=1;exitY=0.5;exitDx=0;exitDy=0;" parent="1" source="zscKiEwWfd5TCdISiovu-51" target="FVtXL2l5g4kQyS-cMRPu-25" edge="1">
          <mxGeometry relative="1" as="geometry">
            <mxPoint x="270" y="410" as="sourcePoint" />
            <mxPoint x="280.5" y="433" as="targetPoint" />
            <Array as="points">
              <mxPoint x="370" y="368" />
              <mxPoint x="370" y="45" />
            </Array>
          </mxGeometry>
        </mxCell>
        <mxCell id="zscKiEwWfd5TCdISiovu-48" value="" style="ellipse;shape=startState;fillColor=#000000;strokeColor=#ff0000;" parent="1" vertex="1">
          <mxGeometry x="265" y="10" width="30" height="30" as="geometry" />
        </mxCell>
        <mxCell id="zscKiEwWfd5TCdISiovu-51" value="clicar na aba&#xa;Arquivo" style="" parent="1" vertex="1">
          <mxGeometry x="225.5" y="343" width="110" height="50" as="geometry" />
        </mxCell>
        <mxCell id="zscKiEwWfd5TCdISiovu-54" value="ler painel &#xa;de tutorial" style="" parent="1" vertex="1">
          <mxGeometry x="225" y="73" width="110" height="50" as="geometry" />
        </mxCell>
        <mxCell id="zscKiEwWfd5TCdISiovu-56" value="" style="ellipse;shape=endState;fillColor=#000000;strokeColor=#ff0000" parent="1" vertex="1">
          <mxGeometry x="440" y="363" width="30" height="30" as="geometry" />
        </mxCell>
        <mxCell id="FVtXL2l5g4kQyS-cMRPu-20" value="pular tutorial" style="" vertex="1" parent="1">
          <mxGeometry x="225" y="163" width="110" height="50" as="geometry" />
        </mxCell>
        <mxCell id="FVtXL2l5g4kQyS-cMRPu-21" value="" style="edgeStyle=elbowEdgeStyle;elbow=horizontal;verticalAlign=bottom;endArrow=open;endSize=8;strokeColor=#FF0000;endFill=1;rounded=0;entryX=0.5;entryY=0;entryDx=0;entryDy=0;exitX=0.5;exitY=1;exitDx=0;exitDy=0;" edge="1" parent="1" source="zscKiEwWfd5TCdISiovu-54" target="FVtXL2l5g4kQyS-cMRPu-20">
          <mxGeometry x="-64.5" y="-88" as="geometry">
            <mxPoint x="290.5" y="83" as="targetPoint" />
            <mxPoint x="290.5" y="43" as="sourcePoint" />
          </mxGeometry>
        </mxCell>
        <mxCell id="FVtXL2l5g4kQyS-cMRPu-22" value="montar cena&#xa;desejada" style="" vertex="1" parent="1">
          <mxGeometry x="225.5" y="253" width="110" height="50" as="geometry" />
        </mxCell>
        <mxCell id="FVtXL2l5g4kQyS-cMRPu-23" value="" style="edgeStyle=elbowEdgeStyle;elbow=horizontal;verticalAlign=bottom;endArrow=open;endSize=8;strokeColor=#FF0000;endFill=1;rounded=0;entryX=0.5;entryY=0;entryDx=0;entryDy=0;exitX=0.5;exitY=1;exitDx=0;exitDy=0;" edge="1" parent="1" source="FVtXL2l5g4kQyS-cMRPu-20" target="FVtXL2l5g4kQyS-cMRPu-22">
          <mxGeometry x="-64.5" y="-88" as="geometry">
            <mxPoint x="290.5" y="173" as="targetPoint" />
            <mxPoint x="290.5" y="133" as="sourcePoint" />
          </mxGeometry>
        </mxCell>
        <mxCell id="FVtXL2l5g4kQyS-cMRPu-24" value="" style="endArrow=open;strokeColor=#FF0000;endFill=1;rounded=0;exitX=0.5;exitY=1;exitDx=0;exitDy=0;entryX=0.5;entryY=0;entryDx=0;entryDy=0;" edge="1" parent="1" source="FVtXL2l5g4kQyS-cMRPu-22" target="zscKiEwWfd5TCdISiovu-51">
          <mxGeometry relative="1" as="geometry">
            <mxPoint x="290.5" y="403" as="sourcePoint" />
            <mxPoint x="290.5" y="473" as="targetPoint" />
          </mxGeometry>
        </mxCell>
        <mxCell id="FVtXL2l5g4kQyS-cMRPu-25" value="clicar no botão&#xa;Exportar" style="" vertex="1" parent="1">
          <mxGeometry x="400" y="20" width="110" height="50" as="geometry" />
        </mxCell>
        <mxCell id="FVtXL2l5g4kQyS-cMRPu-26" value="copiar JSON&#xa;disponibilizado na&#xa;caixa de texto" style="" vertex="1" parent="1">
          <mxGeometry x="400" y="106.5" width="110" height="50" as="geometry" />
        </mxCell>
        <mxCell id="FVtXL2l5g4kQyS-cMRPu-27" value="criar arquivo &#xa;.JSON" style="" vertex="1" parent="1">
          <mxGeometry x="400" y="196.5" width="110" height="50" as="geometry" />
        </mxCell>
        <mxCell id="FVtXL2l5g4kQyS-cMRPu-28" value="colar JSON&#xa;copiado" style="" vertex="1" parent="1">
          <mxGeometry x="400" y="286.5" width="110" height="50" as="geometry" />
        </mxCell>
        <mxCell id="FVtXL2l5g4kQyS-cMRPu-29" value="" style="endArrow=open;strokeColor=#FF0000;endFill=1;rounded=0;exitX=0.5;exitY=1;exitDx=0;exitDy=0;entryX=0.5;entryY=0;entryDx=0;entryDy=0;" edge="1" parent="1" source="FVtXL2l5g4kQyS-cMRPu-25" target="FVtXL2l5g4kQyS-cMRPu-26">
          <mxGeometry relative="1" as="geometry">
            <mxPoint x="465" y="-13.5" as="sourcePoint" />
            <mxPoint x="465" y="30.5" as="targetPoint" />
          </mxGeometry>
        </mxCell>
        <mxCell id="FVtXL2l5g4kQyS-cMRPu-30" value="" style="endArrow=open;strokeColor=#FF0000;endFill=1;rounded=0;exitX=0.5;exitY=1;exitDx=0;exitDy=0;" edge="1" parent="1" source="FVtXL2l5g4kQyS-cMRPu-26" target="FVtXL2l5g4kQyS-cMRPu-27">
          <mxGeometry relative="1" as="geometry">
            <mxPoint x="475" y="-3.5" as="sourcePoint" />
            <mxPoint x="475" y="40.5" as="targetPoint" />
          </mxGeometry>
        </mxCell>
        <mxCell id="FVtXL2l5g4kQyS-cMRPu-31" value="" style="endArrow=open;strokeColor=#FF0000;endFill=1;rounded=0;exitX=0.5;exitY=1;exitDx=0;exitDy=0;entryX=0.5;entryY=0;entryDx=0;entryDy=0;" edge="1" parent="1" source="FVtXL2l5g4kQyS-cMRPu-27" target="FVtXL2l5g4kQyS-cMRPu-28">
          <mxGeometry relative="1" as="geometry">
            <mxPoint x="485" y="6.5" as="sourcePoint" />
            <mxPoint x="485" y="50.5" as="targetPoint" />
          </mxGeometry>
        </mxCell>
        <mxCell id="FVtXL2l5g4kQyS-cMRPu-32" value="" style="endArrow=open;strokeColor=#FF0000;endFill=1;rounded=0;exitX=0.5;exitY=1;exitDx=0;exitDy=0;entryX=0.5;entryY=0;entryDx=0;entryDy=0;" edge="1" parent="1" source="FVtXL2l5g4kQyS-cMRPu-28" target="zscKiEwWfd5TCdISiovu-56">
          <mxGeometry relative="1" as="geometry">
            <mxPoint x="464.75" y="243.5" as="sourcePoint" />
            <mxPoint x="454.75" y="373.5" as="targetPoint" />
          </mxGeometry>
        </mxCell>
        <mxCell id="FVtXL2l5g4kQyS-cMRPu-35" value="" style="edgeStyle=elbowEdgeStyle;elbow=horizontal;verticalAlign=bottom;endArrow=open;endSize=8;strokeColor=#FF0000;endFill=1;rounded=0;entryX=0.5;entryY=0;entryDx=0;entryDy=0;exitX=0.5;exitY=1;exitDx=0;exitDy=0;" edge="1" parent="1" source="zscKiEwWfd5TCdISiovu-48" target="zscKiEwWfd5TCdISiovu-54">
          <mxGeometry x="-64.5" y="-88" as="geometry">
            <mxPoint x="290" y="173" as="targetPoint" />
            <mxPoint x="290" y="133" as="sourcePoint" />
          </mxGeometry>
        </mxCell>
      </root>
    </mxGraphModel>
  </diagram>
</mxfile>
